<?xml version="1.0" encoding="UTF-8"?>
<svg version="1.1" xmlns="http://www.w3.org/2000/svg" width="50" height="50">
<path d="M0 0 C10.56 0 21.12 0 32 0 C32 12.54 32 25.08 32 38 C23.09 38 14.18 38 5 38 C5.33 37.34 5.66 36.68 6 36 C13.59 35.67 21.18 35.34 29 35 C29 24.44 29 13.88 29 3 C20.42 3 11.84 3 3 3 C2.67 12.57 2.34 22.14 2 32 C1.01 32.495 1.01 32.495 0 33 C0 22.11 0 11.22 0 0 Z " fill="#000000" transform="translate(9,6)"/>
<path d="M0 0 C3.96 0 7.92 0 12 0 C12 3.96 12 7.92 12 12 C11.34 12 10.68 12 10 12 C9.67 10.02 9.34 8.04 9 6 C8.09636719 6.9384375 7.19273438 7.876875 6.26171875 8.84375 C5.07071218 10.06289058 3.87928397 11.28161936 2.6875 12.5 C1.79514648 13.43005859 1.79514648 13.43005859 0.88476562 14.37890625 C0.30791016 14.96542969 -0.26894531 15.55195312 -0.86328125 16.15625 C-1.39219971 16.70087891 -1.92111816 17.24550781 -2.46606445 17.80664062 C-4 19 -4 19 -7 19 C-6.42308522 15.83145253 -5.58353113 14.21773541 -3.27734375 11.984375 C-2.73916016 11.45585938 -2.20097656 10.92734375 -1.64648438 10.3828125 C-1.08251953 9.84398437 -0.51855469 9.30515625 0.0625 8.75 C0.63033203 8.19570313 1.19816406 7.64140625 1.78320312 7.0703125 C3.18212469 5.70665786 4.59019114 4.35239583 6 3 C3.03 2.505 3.03 2.505 0 2 C0 1.34 0 0.68 0 0 Z " fill="#000000" transform="translate(16,25)"/>
</svg>
