<?xml version="1.0" encoding="UTF-8"?>
<svg version="1.1" xmlns="http://www.w3.org/2000/svg" width="60" height="60">
<path d="M0 0 C5.80257419 3.50650182 10.5920569 8.99381997 12.5625 15.5 C13.99883064 31.34974157 13.99883064 31.34974157 9.96484375 37.82421875 C5.09728665 43.6408817 0.03446479 48.04051497 -7.70703125 48.8359375 C-16.22326573 48.92983204 -22.11345494 48.6177288 -28.40234375 42.62890625 C-35.11937087 35.36242906 -35.99739079 29.01024883 -35.7421875 19.390625 C-35.09990355 11.18915297 -31.64894433 7.17181125 -25.53515625 1.9453125 C-18.47077988 -2.92213491 -7.84396301 -3.47595223 0 0 Z " fill="#FC1100" transform="translate(41.4375,7.5)"/>
<path d="M0 0 C0.556875 0.721875 1.11375 1.44375 1.6875 2.1875 C6.83729765 8.45076741 11.59870086 13.19539268 19.83203125 14.421875 C27.13382709 14.75931358 33.15225038 13.54133747 39 9 C41.36415205 6.17247415 43.26077153 3.24514581 45 0 C45.495 1.485 45.495 1.485 46 3 C42.51580687 9.53286213 37.14066002 14.75048572 30 17 C22.15749651 17.80580084 14.38861659 18.11944945 8 13 C3.74535207 9.01957743 0.81128526 5.90492436 0 0 Z " fill="#080000" transform="translate(7,39)"/>
</svg>
